<?xml version="1.0" standalone="yes"?>
<svg xmlns="http://www.w3.org/2000/svg" width="27" height="25">
<path style="fill:#fbfafa; stroke:none;" d="M0 0L0 25L6 25L2 5L8 5L10 0L0 0z"/>
<path style="fill:#fcb4b5; stroke:none;" d="M10 0L11 1L10 0z"/>
<path style="fill:#ff6b6b; stroke:none;" d="M9 5L3 5C4.99358 10.2029 3.13331 18.3445 6.02778 22.6821C8.59846 26.5345 19.4867 26.2263 21.3966 21.8519C23.5957 16.8152 21.9186 10.432 24 5L18 5C16.2507 -0.761917 10.7493 -0.761911 9 5z"/>
<path style="fill:#fcb4b5; stroke:none;" d="M16 0L17 1L16 0z"/>
<path style="fill:#fbfafa; stroke:none;" d="M17 0L19 5L25 5L21 25L27 25L27 0L17 0z"/>
<path style="fill:#fda8a8; stroke:none;" d="M9 1L10 2L9 1M17 1L18 2L17 1z"/>
<path style="fill:#fcd5d5; stroke:none;" d="M8 2L9 3L8 2z"/>
<path style="fill:#fda8a8; stroke:none;" d="M11 2L12 3L11 2z"/>
<path style="fill:#fcb4b5; stroke:none;" d="M12 2L12 3L15 3L12 2z"/>
<path style="fill:#fda8a8; stroke:none;" d="M15 2L16 3L15 2z"/>
<path style="fill:#fcd5d5; stroke:none;" d="M18 2L19 3L18 2z"/>
<path style="fill:#fcb4b5; stroke:none;" d="M8.33333 3.66667L8.66667 4.33333L8.33333 3.66667z"/>
<path style="fill:#fbfafa; stroke:none;" d="M11 3L11 5L16 5L16 3L11 3z"/>
<path style="fill:#fcb4b5; stroke:none;" d="M18.3333 3.66667L18.6667 4.33333L18.3333 3.66667M2 5L3 6L2 5M24 5L25 6L24 5z"/>
<path style="fill:#fda8a8; stroke:none;" d="M2 6L3 7L2 6M24 6L25 7L24 6z"/>
<path style="fill:#fcb4b5; stroke:none;" d="M3 7L4 8L3 7z"/>
<path style="fill:#fda8a8; stroke:none;" d="M4 7L5 8L4 7M7 7L8 8L7 7z"/>
<path style="fill:#fcb4b5; stroke:none;" d="M8 7L8 8L19 8L8 7z"/>
<path style="fill:#fda8a8; stroke:none;" d="M19 7L20 8L19 7M22 7L23 8L22 7z"/>
<path style="fill:#fcb4b5; stroke:none;" d="M23 7L24 8L23 7z"/>
<path style="fill:#fcd5d5; stroke:none;" d="M4 8L4 22L5 22L4 8M7 8L7 22L8 22L7 8z"/>
<path style="fill:#fbfafa; stroke:none;" d="M8 8L8 22L19 22L19 8L8 8z"/>
<path style="fill:#fcd5d5; stroke:none;" d="M19 8L19 22L20 22L19 8M22 8L22 22L23 22L22 8z"/>
<path style="fill:#ff6b6b; stroke:none;" d="M10 10L10 20L12 20L12 10L10 10M15 10L15 20L17 20L17 10L15 10z"/>
<path style="fill:#fcd5d5; stroke:none;" d="M9 11L9 19L10 19L9 11M12 11L12 19L13 19L12 11M14 11L14 19L15 19L14 11M17 11L17 19L18 19L17 11z"/>
<path style="fill:#fcb4b5; stroke:none;" d="M8 22L8 23L19 23L8 22M5 23L6 24L5 23M21 23L22 24L21 23M6 24L7 25L6 24M20 24L21 25L20 24z"/>
</svg>
