<?xml version="1.0" standalone="yes"?>
<svg xmlns="http://www.w3.org/2000/svg" width="25" height="25">
<path style="fill:#fbfaf8; stroke:none;" d="M0 0L0 22L25 22L25 0L17 0L23 8C14.9371 11.8166 11.8467 19.8837 2 20C2.27918 10.5972 10.0126 7.0755 15 0L0 0z"/>
<path style="fill:#ffaf14; stroke:none;" d="M15 0C8.66501 6.33499 3.03321 10.5973 3 20C13.745 19.8731 26.7807 8.40428 15 0z"/>
<path style="fill:#fdc75d; stroke:none;" d="M16 0L17 1L16 0M17 1L18 2L17 1M18 2L19 3L18 2z"/>
<path style="fill:#fcdea2; stroke:none;" d="M15 3L14 5L15 3z"/>
<path style="fill:#fdc75d; stroke:none;" d="M16 3L20 7L16 3M19 3L20 4L19 3z"/>
<path style="fill:#fbfaf8; stroke:none;" d="M15 4L18 8L19 7L15 4z"/>
<path style="fill:#fdc75d; stroke:none;" d="M20 4L21 5L20 4M14 5L15 6L14 5M21 5L22 6L21 5M12 6L16 10L12 6M15 6L16 7L15 6z"/>
<path style="fill:#fdd383; stroke:none;" d="M22 6L23 7L22 6z"/>
<path style="fill:#fcdea2; stroke:none;" d="M11 7L5 14L11 7z"/>
<path style="fill:#fbfaf8; stroke:none;" d="M12 7L5 17C9.96002 16.2346 16.5646 11.9934 12 7z"/>
<path style="fill:#fdc75d; stroke:none;" d="M16 7L17 8L16 7z"/>
<path style="fill:#fcdea2; stroke:none;" d="M18 7L19 8L18 7M22 7L23 8L22 7M5 9L6 10L5 9M4 10L5 11L4 10M15 10L16 11L15 10M14 11L15 12L14 11M13 12L14 13L13 12z"/>
<path style="fill:#fdd383; stroke:none;" d="M2 13L2 19L3 19L2 13z"/>
<path style="fill:#fcdea2; stroke:none;" d="M12 13L13 14L12 13M16 13L17 14L16 13M11 14L12 15L11 14M10 15L11 16L10 15M9 16L10 17L9 16z"/>
<path style="fill:#fdd383; stroke:none;" d="M5 17L5 18L9 18L5 17z"/>
<path style="fill:#fcdea2; stroke:none;" d="M2 19L3 20L2 19M0 22L1 23L0 22z"/>
<path style="fill:#fdd383; stroke:none;" d="M1 22L1 23L24 23L1 22z"/>
<path style="fill:#fcdea2; stroke:none;" d="M24 22L25 23L24 22z"/>
<path style="fill:#ffaf14; stroke:none;" d="M0 23L0 24C7.06751 26.0891 17.9325 26.0891 25 24L0 23z"/>
<path style="fill:#fdc75d; stroke:none;" d="M0 24L1 25L0 24M24 24L25 25L24 24z"/>
</svg>
