<?xml version="1.0" standalone="no"?>
<!DOCTYPE svg PUBLIC "-//W3C//DTD SVG 20010904//EN"
 "http://www.w3.org/TR/2001/REC-SVG-20010904/DTD/svg10.dtd">
<svg version="1.0" xmlns="http://www.w3.org/2000/svg"
 width="20.000000pt" height="21.000000pt" viewBox="0 0 20.000000 21.000000"
 preserveAspectRatio="xMidYMid meet">

<g transform="translate(0.000000,21.000000) scale(0.100000,-0.100000)"
fill="#000000" stroke="none">
<path d="M60 142 c0 -4 5 -13 12 -20 8 -8 8 -15 -3 -29 -13 -17 -13 -17 4 -4
14 11 21 11 29 3 19 -19 29 -14 16 7 -9 15 -9 23 1 35 8 9 9 16 3 16 -6 0 -12
-6 -15 -12 -3 -10 -9 -10 -26 0 -11 7 -21 9 -21 4z"/>
</g>
</svg>
